<?xml version="1.0" standalone="no"?>
<!DOCTYPE svg PUBLIC "-//W3C//DTD SVG 20010904//EN"
 "http://www.w3.org/TR/2001/REC-SVG-20010904/DTD/svg10.dtd">
<svg version="1.0" xmlns="http://www.w3.org/2000/svg"
 width="1200.000000pt" height="1200.000000pt" viewBox="0 0 1200.000000 1200.000000"
 preserveAspectRatio="xMidYMid meet">
<metadata>
Created by potrace 1.11, written by Peter Selinger 2001-2013
</metadata>
<g transform="translate(0.000000,1200.000000) scale(0.100000,-0.100000)"
fill="#000000" stroke="none">
<path d="M4478 9187 c-20 -39 -47 -106 -59 -147 -12 -41 -23 -78 -25 -82 -2
-3 -19 -3 -37 2 -30 7 -106 20 -242 41 -33 5 -100 15 -150 23 -190 31 -336 40
-640 41 -364 0 -471 -11 -539 -57 -117 -77 -399 -345 -567 -538 -182 -209
-423 -544 -609 -845 -97 -157 -86 -145 -122 -135 -45 13 -166 15 -545 13
l-323 -3 0 -1120 0 -1120 418 0 c498 0 628 11 743 59 42 17 100 50 130 71 29
22 55 40 58 40 3 -1 29 -31 56 -68 241 -322 596 -675 848 -844 237 -159 470
-256 689 -286 l118 -17 0 -592 c0 -660 4 -623 -71 -734 -88 -132 -233 -199
-426 -199 -101 0 -150 12 -219 56 -84 53 -128 119 -165 250 -22 77 -22 95 -26
657 l-4 578 -87 -3 -87 -3 -3 -475 c-4 -644 9 -782 84 -938 41 -85 124 -174
198 -215 156 -86 392 -88 566 -3 72 35 186 136 215 190 11 20 23 36 26 36 4 0
10 -53 14 -117 3 -65 8 -124 10 -130 3 -9 28 -13 80 -13 l75 0 2 827 3 827 30
7 c17 4 62 13 100 20 39 6 87 18 108 27 30 11 41 12 50 3 9 -9 13 -223 15
-862 l2 -850 68 3 67 3 13 105 c7 58 15 111 17 119 4 8 19 -4 45 -36 82 -103
192 -172 325 -203 281 -65 539 38 674 269 50 84 96 221 110 325 14 99 14 352
0 453 -45 338 -233 591 -477 642 -77 16 -247 14 -317 -4 -120 -31 -243 -115
-310 -212 -16 -23 -33 -43 -37 -43 -10 0 -10 229 -1 323 3 37 9 67 13 67 33 0
317 187 445 292 187 155 435 414 595 620 l70 91 0 -49 c0 -73 4 -75 106 -72
l89 3 5 200 5 200 85 130 c47 72 95 145 105 162 11 18 49 81 85 140 l65 108 0
185 c0 102 -4 231 -8 287 l-9 102 39 10 c87 24 260 -1 339 -49 62 -39 117
-126 150 -235 16 -53 18 -125 23 -645 l6 -585 85 0 85 0 3 520 c3 543 -3 655
-39 785 -61 220 -205 346 -444 389 -55 10 -192 2 -247 -15 -14 -4 -18 1 -18
22 0 15 -7 66 -15 113 -56 310 -63 362 -46 368 20 6 58 20 186 70 90 34 100
41 97 62 -1 13 -25 80 -52 150 -111 282 -271 547 -455 756 -181 206 -393 384
-626 526 -87 53 -294 154 -384 188 -33 13 -76 29 -95 36 -76 30 -72 31 -112
-48z m-3193 -1847 c66 -6 126 -13 133 -15 8 -3 -4 -34 -38 -97 -28 -51 -89
-169 -136 -262 l-85 -169 71 -144 c39 -80 69 -148 66 -150 -3 -3 -117 -6 -253
-7 l-248 -1 -3 414 c-1 297 1 418 9 427 14 17 300 19 484 4z m-28 -1007 l142
-6 92 -161 c94 -163 264 -433 325 -517 19 -26 34 -52 34 -58 0 -36 -131 -117
-250 -154 -59 -18 -98 -20 -423 -24 -268 -3 -362 -1 -373 8 -12 10 -14 82 -14
459 0 245 3 450 7 453 8 9 275 9 460 0z m3696 -2248 c168 -44 281 -189 344
-440 14 -55 17 -114 17 -275 0 -235 -10 -293 -74 -427 -51 -104 -117 -173
-207 -216 -60 -28 -81 -32 -172 -35 -124 -5 -191 8 -281 53 -77 39 -175 136
-214 212 l-26 52 0 374 0 374 30 61 c44 87 145 192 223 231 35 17 83 35 108
40 71 14 190 12 252 -4z"/>
<path d="M8558 7138 l-3 -213 -142 -3 -143 -3 0 -69 0 -69 143 -3 142 -3 6
-615 c5 -597 6 -617 27 -681 55 -165 169 -249 340 -249 64 0 179 23 194 38 3
4 1 34 -6 67 l-12 60 -95 -4 c-82 -3 -102 0 -136 18 -51 26 -97 81 -113 135
-18 60 -27 1201 -10 1221 10 12 46 15 186 15 l174 0 0 70 0 70 -173 0 c-121 0
-177 4 -185 12 -9 9 -12 70 -12 215 l0 203 -90 0 -90 0 -2 -212z"/>
<path d="M7493 6940 c-66 -14 -174 -63 -233 -107 -148 -109 -247 -260 -297
-453 -25 -96 -27 -121 -27 -295 0 -165 3 -202 23 -280 71 -278 233 -462 481
-545 80 -27 262 -38 366 -21 146 22 299 89 383 167 l36 33 -29 53 c-16 29 -32
57 -37 62 -5 5 -31 -8 -61 -31 -107 -81 -202 -118 -350 -135 -271 -32 -465 80
-572 330 -39 90 -55 174 -59 292 l-2 85 578 3 577 2 0 124 c0 68 -7 163 -15
211 -47 266 -213 451 -455 505 -53 11 -247 11 -307 0z m278 -154 c102 -31 159
-71 218 -151 67 -90 101 -202 101 -327 l0 -58 -477 2 -478 3 3 50 c3 68 45
185 93 261 42 67 130 154 183 181 96 50 261 68 357 39z"/>
<path d="M9818 6939 c-106 -25 -259 -143 -307 -237 -41 -80 -47 -69 -57 101
l-6 117 -79 0 -79 0 2 -827 3 -828 85 0 85 0 5 590 5 590 36 75 c88 184 245
271 455 254 77 -6 84 -5 84 12 0 35 19 -1 75 -146 30 -80 60 -154 65 -165 5
-11 24 -60 43 -110 33 -84 62 -159 174 -445 25 -63 76 -196 115 -295 39 -99
83 -212 99 -252 35 -87 36 -97 3 -176 -14 -34 -37 -92 -50 -129 -14 -37 -43
-98 -65 -135 -85 -146 -135 -178 -278 -178 l-95 0 -12 -70 c-6 -38 -10 -72 -8
-73 8 -10 88 -22 149 -22 180 0 295 77 398 269 35 65 112 256 187 466 16 44
63 170 105 280 42 110 88 232 102 270 68 189 186 503 198 530 7 17 20 50 28
75 9 25 49 134 90 243 l74 197 -102 0 -102 0 -16 -47 c-9 -27 -37 -106 -63
-178 -62 -176 -118 -333 -198 -560 -37 -104 -78 -219 -91 -255 -60 -164 -115
-320 -115 -328 0 -4 -6 -17 -14 -27 -13 -18 -16 -13 -36 55 -27 96 -80 245
-173 490 -40 107 -118 312 -171 455 -54 143 -110 290 -124 328 l-26 67 -62 0
c-35 0 -74 6 -90 15 -32 17 -182 19 -246 4z"/>
<path d="M2077 4803 c-4 -3 -7 -242 -7 -530 l0 -523 -637 2 -638 3 -3 523 -2
522 -85 0 -85 0 0 -1120 0 -1120 85 0 85 0 2 518 3 517 635 0 635 0 5 -515 5
-515 88 -3 87 -3 0 1019 c0 560 3 1067 7 1125 l6 107 -90 0 c-49 0 -93 -3 -96
-7z"/>
</g>
</svg>
